<svg xmlns="http://www.w3.org/2000/svg" version="1.1" xmlns:xlink="http://www.w3.org/1999/xlink" viewBox="0 0 14.248878890793828 5.860359880477635"><g transform="matrix(0.7776352123765977,0,0,0.7776352123765977,5.430847008786955,2.154517977213625)"><rect width="15.924648788399782" height="15.924648788399782" x="-5.784449203293829" y="-6.964861894199892" fill="#212121"></rect><g transform="matrix(1,0,0,1,0,0)" clip-path="url(#SvgjsClipPath7906)"><g clip-path="url(#a6e108fa2-2f53-4f11-ac3b-d67b9dbd564da7a01821-36de-47f3-8df9-af66549889ab)"><path d=" M -0.6247435886053929 0.2773777499244079 L -0.6218300871026923 0.20155938203794932 L -0.6969935292311904 0.19223128058812589 L -0.7217338087982421 0.18938510790166396 C -0.7925208778712132 0.18131177075447424 -0.8594824460215209 0.17363628570324163 -0.9035399750476558 0.11700050964338837 C -0.9502478111130115 0.05693096395535213 -0.9960314061554518 -0.08901342644464116 -0.9483993290671799 -0.44324257028035763 L -0.938612167506637 -0.5154863901046792 L -2.2430284117158052 -0.8597875939458985 L -3.547444655924974 -0.5154863901046792 L -3.537786031195432 -0.44324257028035763 C -3.4901539541071607 -0.08901342644464139 -3.5358028915171236 0.05693096395535213 -3.582639264413481 0.11700050964338837 C -3.626702914241092 0.17363628570324163 -3.693664482391399 0.18131177075447424 -3.7644515514643695 0.18938510790166396 L -3.789455025494901 0.19242714623536616 L -3.86435527315992 0.20155938203794932 L -3.861313234826218 0.2773777499244079 C -3.811294045162204 1.5614178460190997 -3.3538620676352324 2.446510222692504 -2.573563933036911 2.7692417221313756 C -2.421260029903082 2.8323594269545906 -2.3102470535281157 2.857436350602836 -2.257449019993879 2.8666297944201817 L -2.2430284117158052 2.8692801014594034 L -2.228870997901211 2.8666297944201817 C -2.1760729643669743 2.857436350602836 -2.064925330359531 2.8323594269545906 -1.9126214272257012 2.7692417221313756 C -1.132194755796378 2.446510222692504 -0.6748913151004086 1.5614178460190997 -0.6247435886053929 0.2773777499244079" fill="#253c4a" transform="matrix(1,0,0,1,0,0)" fill-rule="nonzero"></path></g><g clip-path="url(#a6e108fa2-2f53-4f11-ac3b-d67b9dbd564da7a01821-36de-47f3-8df9-af66549889ab)"><path d=" M -2.2543396528439374 -0.9684318201495505 L -0.8304147598107519 -0.5922596030214345 L -0.8544633888109852 -0.4141075552533501 C -0.9020403786859705 -0.05976211618958471 -0.8463594476564142 0.03298026777873875 -0.8348584616825181 0.0476824329247203 C -0.8244041327610625 0.061148196172496894 -0.7976072638979868 0.06617949498598419 -0.7376111678276658 0.07310824225711299 L -0.7118609560170319 0.07604622696571872 L -0.5265230873158147 0.09931139337699091 L -0.5337089082489466 0.28609377122660495 C -0.5852093318702156 1.6050591605448479 -1.063727470482911 2.517523761420097 -1.8811727492406658 2.8557286469909586 C -2.04259052577265 2.9225861615161692 -2.161927792155332 2.9493157015630063 -2.218783917068331 2.9593782991899813 L -2.2543396528439374 2.9657133287179125 L -2.289889267818068 2.959378299189982 C -2.346745392731066 2.949315701563007 -2.466217316746226 2.92258616151617 -2.6275004356457323 2.8557286469909595 C -3.44507425123449 2.5175237614200974 -3.9235985106486604 1.6050591605448488 -3.9750989342699294 0.2860937712266056 L -3.9822847552030614 0.09931139337699157 L -3.796812228869367 0.07604622696571939 L -3.771062017058733 0.07310824225711365 C -3.7112005786208893 0.06617949498598485 -3.684403709757814 0.06114819617249734 -3.6739493808363584 0.04768243292472096 C -3.662313737229984 0.032980267778739414 -3.6066328062004276 -0.05976211618958405 -3.6543383329064145 -0.4141075552533493 L -3.6782584250756463 -0.5922596030214339 Z M -2.2543396528439374 -1.0948324914358392 L -2.2855802235787794 -1.0864653558177888 L -3.7094989958104887 -0.7104155547191982 L -3.81367503693647 -0.6829698808996388 L -3.7994258110997317 -0.5759843918960537 L -3.7755057189304995 -0.39776501531173014 C -3.7484456556039447 -0.197718860663056 -3.757865569075912 -0.09570958325967194 -3.7666183151869665 -0.05048298115157124 C -3.771974016478696 -0.04982193459213469 -3.7779907643298616 -0.04903847200317335 -3.7849195116009904 -0.04832233823045051 L -3.811318528368109 -0.045121159058365556 L -3.997445980459763 -0.0219784086766186 L -4.1086793056878745 -0.007998498104835994 L -4.104370261448586 0.10401828971223659 L -4.0971783197139775 0.2909292043928524 C -4.043719239620304 1.6602137026474462 -3.5382695745120567 2.6111108159921446 -2.674165426100755 2.9687186422427576 C -2.5021586630148374 3.039958650624972 -2.37302199346866 3.068910041607692 -2.311324314587938 3.0796887730073887 L -2.275774699613808 3.086103372954512 L -2.2543396528439374 3.08975749143584 L -2.232904606074068 3.086103372954512 L -2.1973488702984607 3.0796887730073887 C -2.135785849050217 3.068910041607692 -2.006514521871561 3.039958650624972 -1.8346362956166455 2.9687186422427576 C -0.9704036103743423 2.6111108159921446 -0.4650886028985721 1.6602137026474462 -0.4117641804373773 0.2909292043928522 L -0.40430904423929004 0.10401828971223637 L -0.4000000000000008 -0.007998498104836216 L -0.5113618620591134 -0.0219784086766186 L -0.6968282675913318 -0.04512115905836578 L -0.723239525961402 -0.048322338230450734 C -0.7304253468945339 -0.04903847200317335 -0.7365706315767011 -0.04982193459213513 -0.7421895273319095 -0.05048298115157146 C -0.7509422734429645 -0.09570958325967216 -0.7602275292824543 -0.1977188606630561 -0.7333021235883774 -0.39776501531173025 L -0.7093820314191457 -0.5759843918960538 L -0.6950042687514055 -0.682969880899639 L -0.7991741890759099 -0.7104155547191983 L -2.2230990821090955 -1.0864653558177888 Z" fill="#253c4a" transform="matrix(1,0,0,1,0,0)" fill-rule="nonzero"></path></g><g clip-path="url(#a6e108fa2-2f53-4f11-ac3b-d67b9dbd564da7a01821-36de-47f3-8df9-af66549889ab)"><path d=" M -2.2543396528439374 -0.8419087328337369 L -0.9658313716715745 -0.5018063988052335 L -0.9755022380040685 -0.43043785359201747 C -1.0225528389520955 -0.08053611640001845 -0.9773262368439948 0.06363324157185923 -0.931187635315931 0.12296829108274387 C -0.8876626160182313 0.1789124165757794 -0.8215273560672189 0.1864960896048682 -0.7516033200024008 0.19447149392843777 L -0.7271568389062102 0.19728706260751827 L -0.6529176378006274 0.2064988688292928 L -0.6557944144944705 0.2813868748913597 C -0.7053300608418591 1.5497699608097726 -1.1570513305914787 2.424071364480527 -1.9279601557252137 2.742861067768686 C -2.078409456011736 2.805213672407368 -2.1882043928929256 2.8299784351803243 -2.2403536214706783 2.8390617045710975 L -2.2543396528439374 2.841681407602938 L -2.2685888786806756 2.8390617045710975 C -2.3207381072584288 2.8299784351803243 -2.4303983865071404 2.805213672407368 -2.5808476867936627 2.742861067768686 C -3.351627975096396 2.424071364480528 -3.803477781677017 1.5497699608097735 -3.852884891193405 0.28138687489135994 L -3.855890204718249 0.20649886882929303 L -3.781908077274669 0.1974768074532829 L -3.7572106433179515 0.194471493928438 C -3.687280486451657 0.18649608960486863 -3.621145226500645 0.17891241657577983 -3.577614086401469 0.12296829108274432 C -3.531346948042404 0.06363324157185968 -3.486255003566781 -0.08053611640001779 -3.5333056045148075 -0.43043785359201703 L -3.5428479340163004 -0.501806398805233 Z M -2.2543396528439374 -0.8840565717992778 L -3.588074536124401 -0.5319329836713955 L -3.573690652655185 -0.4250760314988118 C -3.525985125949198 -0.07139163899448264 -3.575790087561543 0.05435410653384598 -3.60977277735775 0.09794033384630829 C -3.641276542556071 0.1383988316044007 -3.6880639490406186 0.14565198135377133 -3.7617890028221956 0.15395178815558297 L -3.786614973609915 0.15701830969519026 L -3.898111493301505 0.17094313305368636 L -3.8935331337972614 0.2830884577017605 C -3.84347721932439 1.568199694054798 -3.382868545831238 2.4551772775828913 -2.596265985712367 2.780503996847698 C -2.4422972245769943 2.844294989833302 -2.3293684373399586 2.869653470349456 -2.2756400419813296 2.8791957998509483 L -2.2543396528439374 2.882978455163278 L -2.2331678005375473 2.8791957998509483 C -2.1794455259803946 2.869653470349456 -2.0665106179418826 2.844294989833302 -1.912407199174032 2.780503996847698 C -1.1259392966876383 2.4551772775828913 -0.6653306231944867 1.568199694054798 -0.615011514258136 0.2830884577017605 L -0.6106963492173723 0.17094313305368636 L -0.7220643320779607 0.15701830969519026 L -0.7468964236671556 0.15395178815558297 C -0.8207438934782578 0.14565198135377133 -0.8676659575952832 0.1383988316044007 -0.8990350651611263 0.09794033384630829 C -0.9330177549573331 0.05435410653384598 -0.9828227165696783 -0.07139163899448264 -0.9351110690622155 -0.4250760314988117 L -0.9207333063944754 -0.5319329836713954 Z" fill="#253c4a" transform="matrix(1,0,0,1,0,0)" fill-rule="nonzero"></path></g></g><g><path d=" M 0.492 0.2865 Q 0.612 0.2865 0.7035 0.33524999999999994 Q 0.795 0.3839999999999999 0.8475 0.47324999999999995 Q 0.9 0.5625 0.9 0.6824999999999999 Q 0.9 0.8025 0.84675 0.8977499999999999 Q 0.7935 0.993 0.69825 1.0485 Q 0.603 1.1039999999999999 0.47550000000000003 1.1039999999999999 Q 0.3585 1.1039999999999999 0.26625 1.0545 Q 0.17400000000000002 1.005 0.12075 0.91575 Q 0.0675 0.8265 0.0675 0.7064999999999999 Q 0.0675 0.588 0.12 0.4927499999999999 Q 0.17250000000000001 0.39749999999999996 0.2685 0.34199999999999997 Q 0.3645 0.2865 0.492 0.2865 M 0.47850000000000004 0.3135 Q 0.3975 0.3135 0.34575 0.4162499999999999 Q 0.294 0.5189999999999999 0.294 0.702 Q 0.294 0.837 0.321 0.9195 Q 0.34800000000000003 1.002 0.39225 1.0394999999999999 Q 0.4365 1.077 0.489 1.077 Q 0.5700000000000001 1.077 0.62175 0.9734999999999999 Q 0.6735 0.87 0.6735 0.6869999999999999 Q 0.6735 0.5519999999999999 0.6465 0.4694999999999999 Q 0.6195 0.3869999999999999 0.57525 0.35024999999999995 Q 0.531 0.3135 0.47850000000000004 0.3135 M 1.419029296875 0.01949999999999985 L 1.419029296875 0.050999999999999934 Q 1.351529296875 0.050999999999999934 1.332779296875 0.06374999999999997 Q 1.314029296875 0.07650000000000001 1.335029296875 0.10799999999999998 L 1.929029296875 0.9764999999999999 Q 1.959029296875 1.0185 1.977029296875 1.0334999999999999 Q 1.9950292968749999 1.0485 2.025029296875 1.0514999999999999 L 2.025029296875 1.083 Q 1.9950292968749999 1.0815 1.938029296875 1.07925 Q 1.881029296875 1.077 1.8195292968749999 1.077 Q 1.752029296875 1.077 1.682279296875 1.07925 Q 1.612529296875 1.0815 1.578029296875 1.083 L 1.578029296875 1.0514999999999999 Q 1.647029296875 1.0514999999999999 1.6672792968749999 1.04175 Q 1.687529296875 1.032 1.666529296875 1.0005 L 1.071029296875 0.1259999999999999 Q 1.042529296875 0.08250000000000002 1.024529296875 0.0674999999999999 Q 1.006529296875 0.05249999999999999 0.975029296875 0.050999999999999934 L 0.975029296875 0.01949999999999985 Q 1.006529296875 0.020999999999999908 1.067279296875 0.023249999999999993 Q 1.128029296875 0.025499999999999856 1.189529296875 0.025499999999999856 Q 1.257029296875 0.025499999999999856 1.319279296875 0.023249999999999993 Q 1.3815292968750001 0.020999999999999908 1.419029296875 0.01949999999999985 M 1.432529296875 0.5489999999999999 Q 1.432529296875 0.5489999999999999 1.438529296875 0.5685 Q 1.444529296875 0.588 1.444529296875 0.588 L 1.294529296875 0.7935 Q 1.234529296875 0.8744999999999999 1.227029296875 0.93075 Q 1.219529296875 0.987 1.253279296875 1.01775 Q 1.2870292968750001 1.0485 1.353029296875 1.053 L 1.353029296875 1.083 Q 1.324529296875 1.0815 1.278029296875 1.0807499999999999 Q 1.231529296875 1.08 1.186529296875 1.07925 Q 1.141529296875 1.0785 1.116029296875 1.0785 Q 1.026029296875 1.0785 0.978029296875 1.083 L 0.978029296875 1.053 Q 1.030529296875 1.035 1.084529296875 0.98925 Q 1.138529296875 0.9435 1.195529296875 0.87 L 1.432529296875 0.5489999999999999 M 1.957529296875 0.020999999999999908 L 1.957529296875 0.050999999999999934 Q 1.9080292968750001 0.0645 1.859279296875 0.10799999999999998 Q 1.810529296875 0.15149999999999997 1.7685292968750002 0.2084999999999999 L 1.525529296875 0.5325 Q 1.525529296875 0.5325 1.520279296875 0.5129999999999999 Q 1.5150292968749999 0.49349999999999994 1.5150292968749999 0.49349999999999994 L 1.669529296875 0.2849999999999999 Q 1.755029296875 0.1755 1.738529296875 0.11549999999999994 Q 1.7220292968750002 0.05549999999999988 1.630529296875 0.050999999999999934 L 1.630529296875 0.020999999999999908 Q 1.6740292968750001 0.022499999999999964 1.728029296875 0.02400000000000002 Q 1.782029296875 0.025499999999999856 1.8195292968749999 0.025499999999999856 Q 1.9095292968750002 0.025499999999999856 1.957529296875 0.020999999999999908 M 2.5919677734375 0.615 L 2.5919677734375 0.7394999999999999 L 2.0504677734375 0.7394999999999999 L 2.0504677734375 0.615 L 2.5919677734375 0.615 M 3.280494873046875 0 Q 3.379494873046875 0 3.4432448730468748 0.029249999999999998 Q 3.506994873046875 0.058499999999999996 3.556494873046875 0.09749999999999992 Q 3.586494873046875 0.12 3.602244873046875 0.1027499999999999 Q 3.617994873046875 0.08549999999999991 3.623994873046875 0.020999999999999908 L 3.658494873046875 0.020999999999999908 Q 3.655494873046875 0.0794999999999999 3.6539948730468748 0.16274999999999995 Q 3.6524948730468747 0.246 3.6524948730468747 0.3839999999999999 L 3.617994873046875 0.3839999999999999 Q 3.610494873046875 0.31499999999999995 3.598494873046875 0.26625 Q 3.586494873046875 0.21749999999999992 3.565494873046875 0.17999999999999994 Q 3.544494873046875 0.14249999999999996 3.505494873046875 0.11249999999999993 Q 3.467994873046875 0.07499999999999996 3.4184948730468747 0.05699999999999994 Q 3.368994873046875 0.038999999999999924 3.314994873046875 0.038999999999999924 Q 3.233994873046875 0.038999999999999924 3.176994873046875 0.08174999999999999 Q 3.119994873046875 0.12449999999999994 3.084744873046875 0.19799999999999995 Q 3.049494873046875 0.27149999999999996 3.0329948730468748 0.3637499999999999 Q 3.016494873046875 0.45599999999999996 3.016494873046875 0.5549999999999999 Q 3.016494873046875 0.6555 3.033744873046875 0.7477499999999999 Q 3.050994873046875 0.84 3.087744873046875 0.9119999999999999 Q 3.124494873046875 0.984 3.1829948730468747 1.026 Q 3.241494873046875 1.068 3.320994873046875 1.068 Q 3.3704948730468747 1.068 3.420744873046875 1.04925 Q 3.470994873046875 1.0305 3.506994873046875 0.9944999999999999 Q 3.565494873046875 0.9495 3.586494873046875 0.8827499999999999 Q 3.6074948730468748 0.816 3.617994873046875 0.705 L 3.6524948730468747 0.705 Q 3.6524948730468747 0.8474999999999999 3.6539948730468748 0.9352499999999999 Q 3.655494873046875 1.023 3.658494873046875 1.083 L 3.623994873046875 1.083 Q 3.617994873046875 1.0185 3.603744873046875 1.002 Q 3.589494873046875 0.9854999999999999 3.556494873046875 1.0065 Q 3.500994873046875 1.0454999999999999 3.438744873046875 1.0747499999999999 Q 3.376494873046875 1.1039999999999999 3.2789948730468748 1.1039999999999999 Q 3.119994873046875 1.1039999999999999 3.000744873046875 1.0394999999999999 Q 2.881494873046875 0.975 2.815494873046875 0.8534999999999999 Q 2.749494873046875 0.732 2.749494873046875 0.5609999999999999 Q 2.749494873046875 0.3929999999999999 2.817744873046875 0.2669999999999999 Q 2.885994873046875 0.1409999999999999 3.005244873046875 0.07050000000000001 Q 3.124494873046875 0 3.280494873046875 0 M 4.2600205078125 0.020999999999999908 L 4.2600205078125 0.050999999999999934 Q 4.2120205078125 0.05249999999999999 4.1872705078125 0.062249999999999917 Q 4.1625205078125 0.07199999999999984 4.1550205078125 0.09824999999999995 Q 4.1475205078125 0.12449999999999994 4.1475205078125 0.17999999999999994 L 4.1475205078125 0.9239999999999999 Q 4.1475205078125 0.978 4.1557705078125 1.005 Q 4.1640205078125 1.032 4.1880205078125 1.041 Q 4.2120205078125 1.05 4.2600205078125 1.053 L 4.2600205078125 1.083 Q 4.2195205078125 1.08 4.1580205078125 1.07925 Q 4.0965205078125 1.0785 4.0335205078125 1.0785 Q 3.9600205078125 1.0785 3.8977705078125 1.07925 Q 3.8355205078125 1.08 3.7965205078125 1.083 L 3.7965205078125 1.053 Q 3.8445205078125 1.05 3.8685205078125 1.041 Q 3.8925205078125 1.032 3.9007705078125 1.005 Q 3.9090205078125 0.978 3.9090205078125 0.9239999999999999 L 3.9090205078125 0.17999999999999994 Q 3.9090205078125 0.12449999999999994 3.9007705078125 0.09824999999999995 Q 3.8925205078125 0.07199999999999984 3.8677705078125 0.062249999999999917 Q 3.8430205078125 0.05249999999999999 3.7965205078125 0.050999999999999934 L 3.7965205078125 0.020999999999999908 Q 3.8355205078125 0.022499999999999964 3.8977705078125 0.02400000000000002 Q 3.9600205078125 0.025499999999999856 4.0335205078125 0.025499999999999856 Q 4.0965205078125 0.025499999999999856 4.1580205078125 0.02400000000000002 Q 4.2195205078125 0.022499999999999964 4.2600205078125 0.020999999999999908 M 4.3634853515625 0.020999999999999908 Q 4.4009853515624995 0.022499999999999964 4.464735351562499 0.02400000000000002 Q 4.5284853515625 0.025499999999999856 4.5914853515625 0.025499999999999856 Q 4.6634853515625 0.025499999999999856 4.7309853515624996 0.02400000000000002 Q 4.7984853515624994 0.022499999999999964 4.8269853515625 0.022499999999999964 Q 5.0354853515624995 0.022499999999999964 5.1389853515625 0.10499999999999998 Q 5.242485351562499 0.1874999999999999 5.242485351562499 0.31799999999999995 Q 5.242485351562499 0.372 5.2214853515624995 0.4312499999999999 Q 5.2004853515625 0.49049999999999994 5.1502353515624995 0.54075 Q 5.099985351562499 0.591 5.0129853515625 0.6224999999999999 Q 4.9259853515625 0.6539999999999999 4.793985351562499 0.6539999999999999 L 4.6409853515625 0.6539999999999999 L 4.6409853515625 0.6239999999999999 L 4.7789853515625 0.6239999999999999 Q 4.867485351562499 0.6239999999999999 4.913235351562499 0.5834999999999999 Q 4.958985351562499 0.5429999999999999 4.9762353515625 0.477 Q 4.9934853515625 0.4109999999999999 4.9934853515625 0.3344999999999999 Q 4.9934853515625 0.19199999999999995 4.9514853515625 0.12149999999999994 Q 4.9094853515625 0.050999999999999934 4.8074853515625 0.050999999999999934 Q 4.748985351562499 0.050999999999999934 4.7317353515625 0.07650000000000001 Q 4.7144853515625 0.10199999999999998 4.7144853515625 0.17999999999999994 L 4.7144853515625 0.9149999999999999 Q 4.7144853515625 0.9734999999999999 4.726485351562499 1.002 Q 4.7384853515625 1.0305 4.772985351562499 1.0394999999999999 Q 4.8074853515625 1.0485 4.8749853515625 1.05 L 4.8749853515625 1.083 Q 4.8284853515625 1.0815 4.7549853515625 1.08 Q 4.6814853515624995 1.0785 4.6004853515625 1.0785 Q 4.535985351562499 1.0785 4.4744853515625 1.08 Q 4.4129853515625 1.0815 4.3634853515625 1.083 L 4.3634853515625 1.053 Q 4.4114853515625 1.05 4.4354853515625 1.041 Q 4.4594853515625 1.032 4.467735351562499 1.005 Q 4.4759853515625 0.978 4.4759853515625 0.9239999999999999 L 4.4759853515625 0.17999999999999994 Q 4.4759853515625 0.12449999999999994 4.467735351562499 0.09824999999999995 Q 4.4594853515625 0.07199999999999984 4.4347353515625 0.062249999999999917 Q 4.4099853515625 0.05249999999999999 4.3634853515625 0.050999999999999934 L 4.3634853515625 0.020999999999999908 M 5.95646484375 1.083 L 5.95646484375 1.053 Q 6.00446484375 1.05 6.02846484375 1.041 Q 6.05246484375 1.032 6.06071484375 1.005 Q 6.06896484375 0.978 6.06896484375 0.9239999999999999 L 6.06896484375 0.17999999999999994 Q 6.06896484375 0.12449999999999994 6.06071484375 0.09824999999999995 Q 6.05246484375 0.07199999999999984 6.02771484375 0.062249999999999917 Q 6.00296484375 0.05249999999999999 5.95646484375 0.050999999999999934 L 5.95646484375 0.020999999999999908 Q 5.99696484375 0.022499999999999964 6.06221484375 0.02400000000000002 Q 6.1274648437499994 0.025499999999999856 6.19196484375 0.025499999999999856 Q 6.26096484375 0.025499999999999856 6.32171484375 0.02400000000000002 Q 6.38246484375 0.022499999999999964 6.41996484375 0.020999999999999908 L 6.41996484375 0.050999999999999934 Q 6.37196484375 0.05249999999999999 6.34721484375 0.062249999999999917 Q 6.32246484375 0.07199999999999984 6.3149648437499994 0.09824999999999995 Q 6.30746484375 0.12449999999999994 6.30746484375 0.17999999999999994 L 6.30746484375 0.9239999999999999 Q 6.30746484375 0.978 6.3157148437499995 1.005 Q 6.32396484375 1.032 6.34796484375 1.041 Q 6.37196484375 1.05 6.41996484375 1.053 L 6.41996484375 1.083 Q 6.38246484375 1.08 6.32171484375 1.07925 Q 6.26096484375 1.0785 6.19196484375 1.0785 Q 6.1274648437499994 1.0785 6.06221484375 1.07925 Q 5.99696484375 1.08 5.95646484375 1.083 M 5.32046484375 1.083 L 5.32046484375 1.053 Q 5.36846484375 1.05 5.39246484375 1.041 Q 5.41646484375 1.032 5.4247148437499995 1.005 Q 5.43296484375 0.978 5.43296484375 0.9239999999999999 L 5.43296484375 0.17999999999999994 Q 5.43296484375 0.12449999999999994 5.4247148437499995 0.09824999999999995 Q 5.41646484375 0.07199999999999984 5.39171484375 0.062249999999999917 Q 5.36696484375 0.05249999999999999 5.32046484375 0.050999999999999934 L 5.32046484375 0.020999999999999908 Q 5.35946484375 0.022499999999999964 5.421714843749999 0.02400000000000002 Q 5.48396484375 0.025499999999999856 5.55746484375 0.025499999999999856 Q 5.62046484375 0.025499999999999856 5.681964843749999 0.02400000000000002 Q 5.74346484375 0.022499999999999964 5.78396484375 0.020999999999999908 L 5.78396484375 0.050999999999999934 Q 5.73596484375 0.05249999999999999 5.71121484375 0.062249999999999917 Q 5.68646484375 0.07199999999999984 5.67896484375 0.09824999999999995 Q 5.67146484375 0.12449999999999994 5.67146484375 0.17999999999999994 L 5.67146484375 0.9239999999999999 Q 5.67146484375 0.978 5.67971484375 1.005 Q 5.68796484375 1.032 5.71196484375 1.041 Q 5.73596484375 1.05 5.78396484375 1.053 L 5.78396484375 1.083 Q 5.74346484375 1.08 5.681964843749999 1.07925 Q 5.62046484375 1.0785 5.55746484375 1.0785 Q 5.48396484375 1.0785 5.421714843749999 1.07925 Q 5.35946484375 1.08 5.32046484375 1.083 M 5.57396484375 0.564 L 5.57396484375 0.5339999999999999 L 6.16646484375 0.5339999999999999 L 6.16646484375 0.564 L 5.57396484375 0.564 M 7.325946533203125 0.020999999999999908 Q 7.319946533203125 0.08699999999999997 7.317696533203125 0.14849999999999997 Q 7.315446533203125 0.20999999999999996 7.315446533203125 0.243 Q 7.315446533203125 0.2729999999999999 7.316946533203125 0.29999999999999993 Q 7.318446533203125 0.32699999999999996 7.319946533203125 0.345 L 7.285446533203125 0.345 Q 7.270446533203125 0.23549999999999993 7.238946533203125 0.17174999999999996 Q 7.207446533203125 0.10799999999999998 7.157196533203125 0.08174999999999999 Q 7.106946533203125 0.05549999999999988 7.039446533203125 0.05549999999999988 L 6.977946533203125 0.05549999999999988 Q 6.932946533203125 0.05549999999999988 6.911196533203125 0.06299999999999994 Q 6.889446533203125 0.07050000000000001 6.881946533203125 0.09224999999999994 Q 6.874446533203125 0.11399999999999999 6.874446533203125 0.16199999999999992 L 6.874446533203125 0.942 Q 6.874446533203125 0.9884999999999999 6.881946533203125 1.011 Q 6.889446533203125 1.0334999999999999 6.911196533203125 1.041 Q 6.932946533203125 1.0485 6.977946533203125 1.0485 L 7.051446533203125 1.0485 Q 7.1189465332031245 1.0485 7.170696533203125 1.01925 Q 7.222446533203125 0.99 7.259196533203125 0.9195 Q 7.295946533203125 0.849 7.315446533203125 0.729 L 7.349946533203125 0.729 Q 7.345446533203125 0.7769999999999999 7.345446533203125 0.855 Q 7.345446533203125 0.8895 7.346946533203125 0.9524999999999999 Q 7.348446533203125 1.0154999999999998 7.355946533203125 1.083 Q 7.279446533203125 1.08 7.183446533203125 1.07925 Q 7.087446533203125 1.0785 7.012446533203125 1.0785 Q 6.961446533203125 1.0785 6.877446533203125 1.0785 Q 6.793446533203125 1.0785 6.698946533203125 1.07925 Q 6.604446533203125 1.08 6.523446533203125 1.083 L 6.523446533203125 1.053 Q 6.571446533203125 1.05 6.595446533203125 1.041 Q 6.619446533203125 1.032 6.627696533203125 1.005 Q 6.635946533203125 0.978 6.635946533203125 0.9239999999999999 L 6.635946533203125 0.17999999999999994 Q 6.635946533203125 0.12449999999999994 6.627696533203125 0.09824999999999995 Q 6.619446533203125 0.07199999999999984 6.594696533203125 0.062249999999999917 Q 6.569946533203125 0.05249999999999999 6.523446533203125 0.050999999999999934 L 6.523446533203125 0.020999999999999908 Q 6.604446533203125 0.022499999999999964 6.698946533203125 0.02400000000000002 Q 6.793446533203125 0.025499999999999856 6.877446533203125 0.025499999999999856 Q 6.961446533203125 0.025499999999999856 7.012446533203125 0.025499999999999856 Q 7.081446533203125 0.025499999999999856 7.169196533203125 0.02475000000000005 Q 7.256946533203125 0.02400000000000002 7.325946533203125 0.020999999999999908 M 7.091946533203125 0.5339999999999999 Q 7.091946533203125 0.5339999999999999 7.091946533203125 0.5489999999999999 Q 7.091946533203125 0.564 7.091946533203125 0.564 L 6.829446533203125 0.564 Q 6.829446533203125 0.564 6.829446533203125 0.5489999999999999 Q 6.829446533203125 0.5339999999999999 6.829446533203125 0.5339999999999999 L 7.091946533203125 0.5339999999999999 M 7.135446533203125 0.33599999999999997 Q 7.129446533203125 0.4215 7.130196533203125 0.4664999999999999 Q 7.130946533203125 0.5115 7.130946533203125 0.5489999999999999 Q 7.130946533203125 0.5865 7.132446533203125 0.6315 Q 7.133946533203125 0.6764999999999999 7.1399465332031244 0.762 L 7.105446533203125 0.762 Q 7.097946533203125 0.7095 7.077696533203125 0.6645 Q 7.057446533203125 0.6194999999999999 7.019946533203125 0.59175 Q 6.982446533203125 0.564 6.922446533203125 0.564 L 6.922446533203125 0.5339999999999999 Q 6.982446533203125 0.5339999999999999 7.018446533203125 0.501 Q 7.054446533203125 0.46799999999999997 7.073946533203125 0.4222499999999999 Q 7.0934465332031245 0.37649999999999995 7.100946533203125 0.33599999999999997 L 7.135446533203125 0.33599999999999997 M 7.47740478515625 0.020999999999999908 Q 7.51490478515625 0.022499999999999964 7.57865478515625 0.02400000000000002 Q 7.64240478515625 0.025499999999999856 7.70540478515625 0.025499999999999856 Q 7.77740478515625 0.025499999999999856 7.84490478515625 0.02400000000000002 Q 7.91240478515625 0.022499999999999964 7.94090478515625 0.022499999999999964 Q 8.14940478515625 0.022499999999999964 8.25290478515625 0.09075 Q 8.35640478515625 0.15899999999999992 8.35640478515625 0.2835 Q 8.35640478515625 0.3344999999999999 8.33540478515625 0.38625 Q 8.31440478515625 0.43799999999999994 8.26415478515625 0.48224999999999996 Q 8.21390478515625 0.5265 8.12690478515625 0.55275 Q 8.03990478515625 0.579 7.90790478515625 0.579 L 7.76390478515625 0.579 L 7.76390478515625 0.5489999999999999 L 7.89290478515625 0.5489999999999999 Q 7.98140478515625 0.5489999999999999 8.02715478515625 0.51525 Q 8.07290478515625 0.48149999999999993 8.09015478515625 0.4252499999999999 Q 8.10740478515625 0.369 8.10740478515625 0.29999999999999993 Q 8.10740478515625 0.1815 8.06540478515625 0.11624999999999996 Q 8.02340478515625 0.050999999999999934 7.92140478515625 0.050999999999999934 Q 7.86290478515625 0.050999999999999934 7.84565478515625 0.07650000000000001 Q 7.82840478515625 0.10199999999999998 7.82840478515625 0.17999999999999994 L 7.82840478515625 0.9239999999999999 Q 7.82840478515625 0.978 7.8366547851562505 1.005 Q 7.84490478515625 1.032 7.86890478515625 1.041 Q 7.89290478515625 1.05 7.94090478515625 1.053 L 7.94090478515625 1.083 Q 7.90040478515625 1.08 7.83890478515625 1.07925 Q 7.77740478515625 1.0785 7.71440478515625 1.0785 Q 7.64240478515625 1.0785 7.57865478515625 1.07925 Q 7.51490478515625 1.08 7.47740478515625 1.083 L 7.47740478515625 1.053 Q 7.52540478515625 1.05 7.54940478515625 1.041 Q 7.57340478515625 1.032 7.58165478515625 1.005 Q 7.58990478515625 0.978 7.58990478515625 0.9239999999999999 L 7.58990478515625 0.17999999999999994 Q 7.58990478515625 0.12449999999999994 7.58165478515625 0.09824999999999995 Q 7.57340478515625 0.07199999999999984 7.54865478515625 0.062249999999999917 Q 7.52390478515625 0.05249999999999999 7.47740478515625 0.050999999999999934 L 7.47740478515625 0.020999999999999908 M 7.76090478515625 0.5535 Q 7.82540478515625 0.5549999999999999 7.87265478515625 0.5595 Q 7.91990478515625 0.564 7.95590478515625 0.56775 Q 7.99190478515625 0.5714999999999999 8.02040478515625 0.573 Q 8.15690478515625 0.585 8.22215478515625 0.6315 Q 8.28740478515625 0.6779999999999999 8.30690478515625 0.7709999999999999 L 8.34140478515625 0.9255 Q 8.35490478515625 0.9854999999999999 8.36990478515625 1.0095 Q 8.38490478515625 1.0334999999999999 8.41340478515625 1.0334999999999999 Q 8.43290478515625 1.032 8.44565478515625 1.02375 Q 8.458404785156251 1.0154999999999998 8.47340478515625 0.999 L 8.49440478515625 1.017 Q 8.45390478515625 1.0635 8.40740478515625 1.08375 Q 8.36090478515625 1.1039999999999999 8.29490478515625 1.1039999999999999 Q 8.21390478515625 1.1039999999999999 8.16140478515625 1.0695 Q 8.10890478515625 1.035 8.09240478515625 0.942 L 8.06540478515625 0.792 Q 8.05490478515625 0.729 8.03990478515625 0.68175 Q 8.02490478515625 0.6345 7.99865478515625 0.6067499999999999 Q 7.97240478515625 0.579 7.92590478515625 0.579 L 7.76390478515625 0.579 L 7.76090478515625 0.5535" fill="#fcf7ee" fill-rule="nonzero"></path></g><g><path d=" M 0.27825 1.4534250000000002 Q 0.32775 1.4534250000000002 0.35962500000000003 1.4680500000000003 Q 0.3915 1.4826750000000004 0.41625 1.5021750000000003 Q 0.43125 1.5134250000000002 0.439125 1.5048000000000004 Q 0.447 1.4961750000000003 0.45 1.4639250000000001 L 0.46725 1.4639250000000001 Q 0.46575 1.4916750000000003 0.465 1.5314250000000003 Q 0.46425 1.5711750000000002 0.46425 1.6364250000000002 L 0.447 1.6364250000000002 Q 0.44175000000000003 1.6041750000000004 0.43725 1.5850500000000003 Q 0.43275 1.5659250000000002 0.426375 1.5524250000000004 Q 0.42 1.5389250000000003 0.40950000000000003 1.5254250000000003 Q 0.38625 1.4946750000000004 0.35100000000000003 1.4808000000000003 Q 0.31575000000000003 1.4669250000000003 0.27675 1.4669250000000003 Q 0.24 1.4669250000000003 0.210375 1.4853000000000003 Q 0.18075 1.5036750000000003 0.15937500000000002 1.5381750000000003 Q 0.138 1.5726750000000003 0.12637500000000002 1.6214250000000003 Q 0.11475 1.6701750000000004 0.11475 1.7309250000000003 Q 0.11475 1.7939250000000002 0.1275 1.8423000000000003 Q 0.14025 1.8906750000000003 0.163125 1.9236750000000002 Q 0.186 1.9566750000000004 0.217125 1.9735500000000004 Q 0.24825 1.9904250000000003 0.28425 1.9904250000000003 Q 0.318 1.9904250000000003 0.35475 1.9769250000000003 Q 0.3915 1.9634250000000002 0.41250000000000003 1.9334250000000002 Q 0.429 1.9116750000000002 0.435375 1.8861750000000004 Q 0.44175000000000003 1.8606750000000003 0.447 1.8149250000000003 L 0.46425 1.8149250000000003 Q 0.46425 1.8831750000000003 0.465 1.9248000000000003 Q 0.46575 1.9664250000000003 0.46725 1.9949250000000003 L 0.45 1.9949250000000003 Q 0.447 1.9626750000000004 0.439875 1.9544250000000003 Q 0.43275 1.9461750000000002 0.41625 1.9566750000000004 Q 0.3885 1.9761750000000002 0.357375 1.9908000000000003 Q 0.32625 2.0054250000000002 0.2775 2.0054250000000002 Q 0.20625000000000002 2.0054250000000002 0.152625 1.9731750000000003 Q 0.099 1.9409250000000002 0.069375 1.8801750000000004 Q 0.03975 1.8194250000000003 0.03975 1.7339250000000002 Q 0.03975 1.6499250000000003 0.07050000000000001 1.5869250000000004 Q 0.10125 1.5239250000000002 0.154875 1.4886750000000002 Q 0.2085 1.4534250000000002 0.27825 1.4534250000000002 M 0.7064912109375 1.6004250000000002 L 0.7064912109375 1.9176750000000002 Q 0.7064912109375 1.9536750000000003 0.7229912109375001 1.9664250000000003 Q 0.7394912109375 1.9791750000000004 0.7784912109375 1.9791750000000004 L 0.7784912109375 1.9949250000000003 Q 0.7634912109375 1.9941750000000003 0.7346162109375001 1.9930500000000002 Q 0.7057412109375001 1.9919250000000004 0.6749912109375 1.9919250000000004 Q 0.6404912109375 1.9919250000000004 0.6086162109375001 1.9930500000000002 Q 0.5767412109375001 1.9941750000000003 0.5594912109375 1.9949250000000003 L 0.5594912109375 1.9791750000000004 Q 0.5969912109375001 1.9791750000000004 0.6179912109375001 1.9668000000000003 Q 0.6389912109375 1.9544250000000003 0.6389912109375 1.9176750000000002 L 0.6389912109375 1.7361750000000002 Q 0.6389912109375 1.7001750000000002 0.6314912109375 1.6829250000000002 Q 0.6239912109375 1.6656750000000002 0.6048662109375 1.6604250000000003 Q 0.5857412109375 1.6551750000000003 0.5519912109375 1.6551750000000003 L 0.5519912109375 1.6386750000000003 Q 0.6059912109375001 1.6371750000000003 0.6419912109375 1.6289250000000002 Q 0.6779912109375 1.6206750000000003 0.7064912109375 1.6004250000000002 M 0.826487548828125 1.4639250000000001 Q 0.8422375488281251 1.4646750000000002 0.867737548828125 1.4654250000000002 Q 0.893237548828125 1.4661750000000002 0.917987548828125 1.4661750000000002 Q 0.9532375488281251 1.4661750000000002 0.9854875488281251 1.4654250000000002 Q 1.017737548828125 1.4646750000000002 1.0312375488281251 1.4646750000000002 Q 1.121987548828125 1.4646750000000002 1.166987548828125 1.5059250000000004 Q 1.211987548828125 1.5471750000000002 1.211987548828125 1.6124250000000002 Q 1.211987548828125 1.6394250000000004 1.202987548828125 1.6690500000000004 Q 1.193987548828125 1.6986750000000002 1.1718625488281251 1.7238000000000002 Q 1.1497375488281252 1.7489250000000003 1.111487548828125 1.7646750000000002 Q 1.073237548828125 1.7804250000000004 1.014737548828125 1.7804250000000004 L 0.9427375488281251 1.7804250000000004 L 0.9427375488281251 1.7654250000000002 L 1.007237548828125 1.7654250000000002 Q 1.0604875488281251 1.7654250000000002 1.088612548828125 1.7451750000000004 Q 1.116737548828125 1.7249250000000003 1.1268625488281252 1.6919250000000003 Q 1.1369875488281251 1.6589250000000002 1.1369875488281251 1.6206750000000003 Q 1.1369875488281251 1.5494250000000003 1.108862548828125 1.5141750000000003 Q 1.080737548828125 1.4789250000000003 1.012487548828125 1.4789250000000003 Q 0.9779875488281251 1.4789250000000003 0.967487548828125 1.4916750000000003 Q 0.9569875488281251 1.5044250000000003 0.9569875488281251 1.5434250000000003 L 0.9569875488281251 1.9154250000000004 Q 0.9569875488281251 1.9424250000000003 0.9626125488281251 1.9559250000000004 Q 0.9682375488281251 1.9694250000000002 0.984737548828125 1.9739250000000004 Q 1.001237548828125 1.9784250000000003 1.0327375488281252 1.9799250000000004 L 1.0327375488281252 1.9949250000000003 Q 1.0132375488281251 1.9934250000000002 0.9832375488281251 1.9930500000000002 Q 0.9532375488281251 1.9926750000000002 0.922487548828125 1.9926750000000002 Q 0.893237548828125 1.9926750000000002 0.867737548828125 1.9930500000000002 Q 0.8422375488281251 1.9934250000000002 0.826487548828125 1.9949250000000003 L 0.826487548828125 1.9799250000000004 Q 0.8519875488281251 1.9784250000000003 0.865112548828125 1.9739250000000004 Q 0.8782375488281251 1.9694250000000002 0.882737548828125 1.9559250000000004 Q 0.887237548828125 1.9424250000000003 0.887237548828125 1.9154250000000004 L 0.887237548828125 1.5434250000000003 Q 0.887237548828125 1.5156750000000003 0.882737548828125 1.5025500000000003 Q 0.8782375488281251 1.4894250000000002 0.865112548828125 1.4845500000000003 Q 0.8519875488281251 1.4796750000000003 0.826487548828125 1.4789250000000003 L 0.826487548828125 1.4639250000000001 M 1.5795040283203126 1.9949250000000003 L 1.5795040283203126 1.9799250000000004 Q 1.6050040283203126 1.9784250000000003 1.6181290283203125 1.9739250000000004 Q 1.6312540283203125 1.9694250000000002 1.6357540283203127 1.9559250000000004 Q 1.6402540283203126 1.9424250000000003 1.6402540283203126 1.9154250000000004 L 1.6402540283203126 1.5434250000000003 Q 1.6402540283203126 1.5156750000000003 1.6357540283203127 1.5025500000000003 Q 1.6312540283203125 1.4894250000000002 1.6181290283203125 1.4845500000000003 Q 1.6050040283203126 1.4796750000000003 1.5795040283203126 1.4789250000000003 L 1.5795040283203126 1.4639250000000001 Q 1.5967540283203125 1.4646750000000002 1.6230040283203127 1.4654250000000002 Q 1.6492540283203125 1.4661750000000002 1.6747540283203126 1.4661750000000002 Q 1.7040040283203126 1.4661750000000002 1.7295040283203127 1.4654250000000002 Q 1.7550040283203125 1.4646750000000002 1.7707540283203125 1.4639250000000001 L 1.7707540283203125 1.4789250000000003 Q 1.7452540283203126 1.4796750000000003 1.7321290283203126 1.4845500000000003 Q 1.7190040283203125 1.4894250000000002 1.7145040283203126 1.5025500000000003 Q 1.7100040283203126 1.5156750000000003 1.7100040283203126 1.5434250000000003 L 1.7100040283203126 1.9154250000000004 Q 1.7100040283203126 1.9424250000000003 1.7145040283203126 1.9559250000000004 Q 1.7190040283203125 1.9694250000000002 1.7321290283203126 1.9739250000000004 Q 1.7452540283203126 1.9784250000000003 1.7707540283203125 1.9799250000000004 L 1.7707540283203125 1.9949250000000003 Q 1.7550040283203125 1.9934250000000002 1.7295040283203127 1.9930500000000002 Q 1.7040040283203126 1.9926750000000002 1.6747540283203126 1.9926750000000002 Q 1.6492540283203125 1.9926750000000002 1.6230040283203127 1.9930500000000002 Q 1.5967540283203125 1.9934250000000002 1.5795040283203126 1.9949250000000003 M 1.2660040283203127 1.9949250000000003 L 1.2660040283203127 1.9799250000000004 Q 1.2915040283203125 1.9784250000000003 1.3046290283203126 1.9739250000000004 Q 1.3177540283203126 1.9694250000000002 1.3222540283203126 1.9559250000000004 Q 1.3267540283203125 1.9424250000000003 1.3267540283203125 1.9154250000000004 L 1.3267540283203125 1.5434250000000003 Q 1.3267540283203125 1.5156750000000003 1.3222540283203126 1.5025500000000003 Q 1.3177540283203126 1.4894250000000002 1.3046290283203126 1.4845500000000003 Q 1.2915040283203125 1.4796750000000003 1.2660040283203127 1.4789250000000003 L 1.2660040283203127 1.4639250000000001 Q 1.2817540283203126 1.4646750000000002 1.3072540283203127 1.4654250000000002 Q 1.3327540283203125 1.4661750000000002 1.3620040283203125 1.4661750000000002 Q 1.3882540283203126 1.4661750000000002 1.4141290283203125 1.4654250000000002 Q 1.4400040283203126 1.4646750000000002 1.4572540283203126 1.4639250000000001 L 1.4572540283203126 1.4789250000000003 Q 1.4317540283203125 1.4796750000000003 1.4186290283203127 1.4845500000000003 Q 1.4055040283203126 1.4894250000000002 1.4010040283203127 1.5025500000000003 Q 1.3965040283203125 1.5156750000000003 1.3965040283203125 1.5434250000000003 L 1.3965040283203125 1.9154250000000004 Q 1.3965040283203125 1.9424250000000003 1.4010040283203127 1.9559250000000004 Q 1.4055040283203126 1.9694250000000002 1.4186290283203127 1.9739250000000004 Q 1.4317540283203125 1.9784250000000003 1.4572540283203126 1.9799250000000004 L 1.4572540283203126 1.9949250000000003 Q 1.4400040283203126 1.9934250000000002 1.4141290283203125 1.9930500000000002 Q 1.3882540283203126 1.9926750000000002 1.3620040283203125 1.9926750000000002 Q 1.3327540283203125 1.9926750000000002 1.3072540283203127 1.9930500000000002 Q 1.2817540283203126 1.9934250000000002 1.2660040283203127 1.9949250000000003 M 1.3702540283203126 1.7354250000000002 L 1.3702540283203126 1.7204250000000003 L 1.6665040283203125 1.7204250000000003 L 1.6665040283203125 1.7354250000000002 L 1.3702540283203126 1.7354250000000002 M 1.9732683105468751 1.5981750000000003 Q 2.004768310546875 1.5981750000000003 2.0291433105468752 1.6083000000000003 Q 2.0535183105468753 1.6184250000000002 2.0673933105468754 1.6375500000000003 Q 2.081268310546875 1.6566750000000003 2.081268310546875 1.6836750000000003 Q 2.081268310546875 1.7129250000000003 2.0651433105468753 1.7373000000000003 Q 2.049018310546875 1.7616750000000003 2.023518310546875 1.7793000000000003 Q 1.9980183105468752 1.7969250000000003 1.9695183105468752 1.8074250000000003 Q 2.004768310546875 1.8081750000000003 2.036268310546875 1.8205500000000003 Q 2.067768310546875 1.8329250000000004 2.0880183105468753 1.8576750000000002 Q 2.108268310546875 1.8824250000000002 2.108268310546875 1.9214250000000004 Q 2.108268310546875 1.9559250000000004 2.092143310546875 1.9848000000000003 Q 2.0760183105468752 2.013675 2.047893310546875 2.03655 Q 2.0197683105468753 2.059425 1.983768310546875 2.0755500000000002 Q 1.947768310546875 2.0916750000000004 1.908393310546875 2.0999250000000003 Q 1.8690183105468752 2.108175 1.830768310546875 2.108175 L 1.830768310546875 2.0946750000000005 Q 1.8690183105468752 2.0939250000000005 1.905768310546875 2.0823000000000005 Q 1.942518310546875 2.0706750000000005 1.972143310546875 2.048925 Q 2.001768310546875 2.027175 2.0193933105468753 1.9949250000000003 Q 2.037018310546875 1.9626750000000004 2.037018310546875 1.9214250000000004 Q 2.037018310546875 1.8771750000000003 2.015643310546875 1.8483000000000003 Q 1.994268310546875 1.8194250000000003 1.9575183105468752 1.8164250000000002 Q 1.9462683105468752 1.8209250000000003 1.937643310546875 1.8243000000000003 Q 1.929018310546875 1.8276750000000002 1.9222683105468752 1.8276750000000002 Q 1.9162683105468752 1.8276750000000002 1.913268310546875 1.8250500000000003 Q 1.9102683105468752 1.8224250000000002 1.9102683105468752 1.8179250000000002 Q 1.9102683105468752 1.8111750000000002 1.9162683105468752 1.8074250000000003 Q 1.9222683105468752 1.8036750000000004 1.929768310546875 1.8036750000000004 Q 1.935768310546875 1.8036750000000004 1.942143310546875 1.8048000000000002 Q 1.948518310546875 1.8059250000000002 1.9560183105468751 1.8066750000000003 Q 1.9867683105468752 1.7834250000000003 2.000268310546875 1.7553000000000003 Q 2.013768310546875 1.7271750000000003 2.013768310546875 1.6986750000000002 Q 2.013768310546875 1.6634250000000002 1.996143310546875 1.6473000000000002 Q 1.978518310546875 1.6311750000000003 1.948518310546875 1.6311750000000003 Q 1.917768310546875 1.6311750000000003 1.8918933105468752 1.6476750000000002 Q 1.866018310546875 1.6641750000000002 1.848768310546875 1.6979250000000004 L 1.836018310546875 1.6919250000000003 Q 1.847268310546875 1.6671750000000003 1.865268310546875 1.6458000000000004 Q 1.883268310546875 1.6244250000000002 1.9098933105468752 1.6113000000000004 Q 1.936518310546875 1.5981750000000003 1.9732683105468751 1.5981750000000003 M 2.1735098876953125 1.4639250000000001 Q 2.1892598876953127 1.4646750000000002 2.2147598876953127 1.4654250000000002 Q 2.240259887695313 1.4661750000000002 2.265009887695313 1.4661750000000002 Q 2.3002598876953124 1.4661750000000002 2.3325098876953128 1.4654250000000002 Q 2.3647598876953126 1.4646750000000002 2.3782598876953127 1.4646750000000002 Q 2.439009887695313 1.4646750000000002 2.4791348876953125 1.4819250000000004 Q 2.5192598876953127 1.4991750000000001 2.5391348876953126 1.5288000000000004 Q 2.5590098876953125 1.5584250000000002 2.5590098876953125 1.5951750000000002 Q 2.5590098876953125 1.6176750000000002 2.5500098876953126 1.6431750000000003 Q 2.5410098876953127 1.6686750000000004 2.5188848876953127 1.6911750000000003 Q 2.4967598876953128 1.7136750000000003 2.4585098876953126 1.7283000000000004 Q 2.4202598876953125 1.7429250000000003 2.3617598876953125 1.7429250000000003 L 2.2897598876953125 1.7429250000000003 L 2.2897598876953125 1.7279250000000004 L 2.3542598876953127 1.7279250000000004 Q 2.4075098876953125 1.7279250000000004 2.4356348876953127 1.7110500000000002 Q 2.4637598876953124 1.6941750000000002 2.473884887695313 1.6660500000000003 Q 2.4840098876953127 1.6379250000000003 2.4840098876953127 1.6034250000000003 Q 2.4840098876953127 1.5441750000000003 2.4558848876953125 1.5115500000000002 Q 2.427759887695313 1.4789250000000003 2.3595098876953124 1.4789250000000003 Q 2.3250098876953125 1.4789250000000003 2.3145098876953125 1.4916750000000003 Q 2.3040098876953126 1.5044250000000003 2.3040098876953126 1.5434250000000003 L 2.3040098876953126 1.9154250000000004 Q 2.3040098876953126 1.9424250000000003 2.3085098876953127 1.9559250000000004 Q 2.3130098876953125 1.9694250000000002 2.3261348876953125 1.9739250000000004 Q 2.3392598876953126 1.9784250000000003 2.3647598876953126 1.9799250000000004 L 2.3647598876953126 1.9949250000000003 Q 2.3475098876953124 1.9934250000000002 2.321634887695313 1.9930500000000002 Q 2.2957598876953127 1.9926750000000002 2.2695098876953126 1.9926750000000002 Q 2.240259887695313 1.9926750000000002 2.2147598876953127 1.9930500000000002 Q 2.1892598876953127 1.9934250000000002 2.1735098876953125 1.9949250000000003 L 2.1735098876953125 1.9799250000000004 Q 2.1990098876953126 1.9784250000000003 2.2121348876953126 1.9739250000000004 Q 2.2252598876953127 1.9694250000000002 2.229759887695313 1.9559250000000004 Q 2.2342598876953126 1.9424250000000003 2.2342598876953126 1.9154250000000004 L 2.2342598876953126 1.5434250000000003 Q 2.2342598876953126 1.5156750000000003 2.229759887695313 1.5025500000000003 Q 2.2252598876953127 1.4894250000000002 2.2121348876953126 1.4845500000000003 Q 2.1990098876953126 1.4796750000000003 2.1735098876953125 1.4789250000000003 L 2.1735098876953125 1.4639250000000001 M 2.2927598876953126 1.7301750000000002 Q 2.333259887695313 1.7316750000000003 2.3565098876953128 1.7335500000000001 Q 2.3797598876953128 1.7354250000000002 2.3943848876953124 1.7369250000000003 Q 2.4090098876953125 1.7384250000000003 2.4225098876953126 1.7406750000000002 Q 2.4727598876953127 1.7489250000000003 2.4948848876953127 1.7710500000000002 Q 2.5170098876953126 1.7931750000000002 2.5275098876953126 1.8396750000000002 L 2.546259887695313 1.9161750000000002 Q 2.5537598876953127 1.9491750000000003 2.5616348876953126 1.9638000000000002 Q 2.569509887695313 1.9784250000000003 2.5860098876953126 1.9776750000000003 Q 2.5987598876953126 1.9769250000000003 2.6073848876953125 1.9694250000000002 Q 2.616009887695313 1.9619250000000004 2.6257598876953128 1.9491750000000003 L 2.6370098876953127 1.9574250000000002 Q 2.6212598876953126 1.9806750000000002 2.604384887695313 1.9930500000000002 Q 2.5875098876953126 2.0054250000000002 2.556759887695313 2.0054250000000002 Q 2.5290098876953127 2.0054250000000002 2.5080098876953127 1.9889250000000003 Q 2.487009887695313 1.9724250000000003 2.476509887695313 1.9244250000000003 L 2.4600098876953127 1.8494250000000003 Q 2.453259887695313 1.8171750000000002 2.4446348876953126 1.7935500000000002 Q 2.4360098876953127 1.7699250000000002 2.4206348876953125 1.7564250000000003 Q 2.405259887695313 1.7429250000000003 2.3752598876953126 1.7429250000000003 L 2.2942598876953126 1.7429250000000003 L 2.2927598876953126 1.7301750000000002 M 2.700017578125 1.4474250000000004 Q 2.711267578125 1.4474250000000004 2.719142578125 1.4564250000000003 Q 2.7270175781250003 1.4654250000000002 2.7270175781250003 1.4819250000000004 Q 2.7270175781250003 1.5066750000000002 2.7240175781250002 1.5280500000000004 Q 2.721017578125 1.5494250000000003 2.7161425781250004 1.5760500000000004 Q 2.711267578125 1.6026750000000003 2.705267578125 1.6439250000000003 L 2.694767578125 1.6439250000000003 Q 2.6895175781250003 1.6049250000000002 2.684267578125 1.5783000000000003 Q 2.6790175781250003 1.5516750000000004 2.676017578125 1.5295500000000004 Q 2.673017578125 1.5074250000000002 2.673017578125 1.4826750000000004 Q 2.673017578125 1.4661750000000002 2.6808925781250004 1.4571750000000003 Q 2.6887675781250002 1.4481750000000004 2.700017578125 1.4474250000000004 M 2.963286987304688 1.4556750000000003 Q 3.0007869873046875 1.4556750000000003 3.020286987304688 1.4643000000000002 Q 3.0397869873046877 1.4729250000000003 3.054786987304688 1.4834250000000002 Q 3.0637869873046877 1.4886750000000002 3.069411987304688 1.4913000000000003 Q 3.0750369873046877 1.4939250000000004 3.080286987304688 1.4939250000000004 Q 3.0877869873046877 1.4939250000000004 3.091161987304688 1.4856750000000003 Q 3.0945369873046875 1.4774250000000002 3.0967869873046876 1.4609250000000003 L 3.114036987304688 1.4609250000000003 Q 3.113286987304688 1.4736750000000003 3.1121619873046877 1.4913000000000003 Q 3.1110369873046877 1.5089250000000003 3.1106619873046877 1.5378000000000003 Q 3.1102869873046877 1.5666750000000003 3.1102869873046877 1.6139250000000003 L 3.0930369873046875 1.6139250000000003 Q 3.090786987304688 1.5779250000000002 3.0772869873046877 1.5449250000000003 Q 3.0637869873046877 1.5119250000000002 3.0379119873046876 1.4909250000000003 Q 3.0120369873046875 1.4699250000000004 2.9700369873046877 1.4699250000000004 Q 2.9302869873046875 1.4699250000000004 2.904411987304688 1.4939250000000004 Q 2.8785369873046878 1.5179250000000002 2.8785369873046878 1.5569250000000003 Q 2.8785369873046878 1.5906750000000003 2.8957869873046875 1.6135500000000003 Q 2.9130369873046877 1.6364250000000002 2.9419119873046875 1.6548000000000003 Q 2.9707869873046877 1.6731750000000003 3.0045369873046877 1.6941750000000002 Q 3.043536987304688 1.7181750000000002 3.0739119873046876 1.7418000000000002 Q 3.104286987304688 1.7654250000000002 3.1219119873046877 1.7939250000000002 Q 3.139536987304688 1.8224250000000002 3.139536987304688 1.8629250000000002 Q 3.139536987304688 1.9109250000000002 3.1177869873046875 1.9424250000000003 Q 3.0960369873046876 1.9739250000000004 3.0600369873046875 1.9896750000000003 Q 3.0240369873046875 2.0054250000000002 2.9805369873046876 2.0054250000000002 Q 2.940786987304688 2.0054250000000002 2.917536987304688 1.9964250000000003 Q 2.894286987304688 1.9874250000000002 2.8777869873046877 1.9776750000000003 Q 2.8612869873046876 1.9671750000000003 2.8522869873046877 1.9671750000000003 Q 2.844786987304688 1.9671750000000003 2.8414119873046877 1.9754250000000002 Q 2.8380369873046876 1.9836750000000003 2.8357869873046875 2.0001750000000005 L 2.8185369873046877 2.0001750000000005 Q 2.8200369873046878 1.9844250000000003 2.820411987304688 1.9630500000000002 Q 2.820786987304688 1.9416750000000003 2.821161987304688 1.9071750000000003 Q 2.821536987304688 1.8726750000000003 2.821536987304688 1.8201750000000003 L 2.8387869873046876 1.8201750000000003 Q 2.8417869873046877 1.8651750000000002 2.855661987304688 1.9041750000000004 Q 2.869536987304688 1.9431750000000003 2.8984119873046876 1.9668000000000003 Q 2.927286987304688 1.9904250000000003 2.975286987304688 1.9904250000000003 Q 3.0000369873046875 1.9904250000000003 3.022161987304688 1.9803000000000002 Q 3.044286987304688 1.9701750000000002 3.058536987304688 1.9480500000000003 Q 3.0727869873046876 1.9259250000000003 3.0727869873046876 1.8906750000000003 Q 3.0727869873046876 1.8599250000000003 3.058161987304688 1.8370500000000003 Q 3.043536987304688 1.8141750000000003 3.0172869873046877 1.7943000000000002 Q 2.9910369873046876 1.7744250000000004 2.9557869873046876 1.7534250000000002 Q 2.9205369873046876 1.7316750000000003 2.8897869873046877 1.7091750000000003 Q 2.859036987304688 1.6866750000000001 2.8406619873046877 1.6570500000000004 Q 2.822286987304688 1.6274250000000003 2.822286987304688 1.5854250000000003 Q 2.822286987304688 1.5411750000000004 2.8421619873046877 1.5123000000000002 Q 2.8620369873046876 1.4834250000000002 2.894286987304688 1.4695500000000004 Q 2.926536987304688 1.4556750000000003 2.963286987304688 1.4556750000000003 M 3.4995205078125 1.7714250000000002 L 3.4995205078125 1.8149250000000003 L 3.2287705078125004 1.8149250000000003 L 3.2287705078125004 1.7714250000000002 L 3.4995205078125 1.7714250000000002 M 3.7440380859375004 1.4556750000000003 Q 3.7815380859375 1.4556750000000003 3.8010380859375004 1.4643000000000002 Q 3.8205380859375 1.4729250000000003 3.8355380859375003 1.4834250000000002 Q 3.8445380859375002 1.4886750000000002 3.8501630859375005 1.4913000000000003 Q 3.8557880859375 1.4939250000000004 3.8610380859375004 1.4939250000000004 Q 3.8685380859375003 1.4939250000000004 3.8719130859375004 1.4856750000000003 Q 3.8752880859375 1.4774250000000002 3.8775380859375 1.4609250000000003 L 3.8947880859375004 1.4609250000000003 Q 3.8940380859375003 1.4736750000000003 3.8929130859375003 1.4913000000000003 Q 3.8917880859375003 1.5089250000000003 3.8914130859375002 1.5378000000000003 Q 3.8910380859375002 1.5666750000000003 3.8910380859375002 1.6139250000000003 L 3.8737880859375 1.6139250000000003 Q 3.8715380859375004 1.5779250000000002 3.8580380859375003 1.5449250000000003 Q 3.8445380859375002 1.5119250000000002 3.8186630859375 1.4909250000000003 Q 3.7927880859375 1.4699250000000004 3.7507880859375002 1.4699250000000004 Q 3.7110380859375 1.4699250000000004 3.6851630859375004 1.4939250000000004 Q 3.6592880859375003 1.5179250000000002 3.6592880859375003 1.5569250000000003 Q 3.6592880859375003 1.5906750000000003 3.6765380859375 1.6135500000000003 Q 3.6937880859375003 1.6364250000000002 3.7226630859375 1.6548000000000003 Q 3.7515380859375003 1.6731750000000003 3.7852880859375 1.6941750000000002 Q 3.8242880859375004 1.7181750000000002 3.8546630859375 1.7418000000000002 Q 3.8850380859375004 1.7654250000000002 3.9026630859375 1.7939250000000002 Q 3.9202880859375004 1.8224250000000002 3.9202880859375004 1.8629250000000002 Q 3.9202880859375004 1.9109250000000002 3.8985380859375 1.9424250000000003 Q 3.8767880859375 1.9739250000000004 3.8407880859375 1.9896750000000003 Q 3.8047880859375 2.0054250000000002 3.7612880859375 2.0054250000000002 Q 3.7215380859375005 2.0054250000000002 3.6982880859375005 1.9964250000000003 Q 3.6750380859375005 1.9874250000000002 3.6585380859375003 1.9776750000000003 Q 3.6420380859375 1.9671750000000003 3.6330380859375 1.9671750000000003 Q 3.6255380859375004 1.9671750000000003 3.6221630859375002 1.9754250000000002 Q 3.6187880859375 1.9836750000000003 3.6165380859375 2.0001750000000005 L 3.5992880859375003 2.0001750000000005 Q 3.6007880859375003 1.9844250000000003 3.6011630859375003 1.9630500000000002 Q 3.6015380859375004 1.9416750000000003 3.6019130859375004 1.9071750000000003 Q 3.6022880859375004 1.8726750000000003 3.6022880859375004 1.8201750000000003 L 3.6195380859375 1.8201750000000003 Q 3.6225380859375003 1.8651750000000002 3.6364130859375003 1.9041750000000004 Q 3.6502880859375004 1.9431750000000003 3.6791630859375 1.9668000000000003 Q 3.7080380859375004 1.9904250000000003 3.7560380859375004 1.9904250000000003 Q 3.7807880859375 1.9904250000000003 3.8029130859375004 1.9803000000000002 Q 3.8250380859375004 1.9701750000000002 3.8392880859375005 1.9480500000000003 Q 3.8535380859375 1.9259250000000003 3.8535380859375 1.8906750000000003 Q 3.8535380859375 1.8599250000000003 3.8389130859375005 1.8370500000000003 Q 3.8242880859375004 1.8141750000000003 3.7980380859375003 1.7943000000000002 Q 3.7717880859375 1.7744250000000004 3.7365380859375 1.7534250000000002 Q 3.7012880859375 1.7316750000000003 3.6705380859375003 1.7091750000000003 Q 3.6397880859375005 1.6866750000000001 3.6214130859375 1.6570500000000004 Q 3.6030380859375004 1.6274250000000003 3.6030380859375004 1.5854250000000003 Q 3.6030380859375004 1.5411750000000004 3.6229130859375003 1.5123000000000002 Q 3.6427880859375 1.4834250000000002 3.6750380859375005 1.4695500000000004 Q 3.7072880859375004 1.4556750000000003 3.7440380859375004 1.4556750000000003 M 4.363521606445313 1.4639250000000001 Q 4.360521606445313 1.4901750000000002 4.359396606445313 1.5149250000000003 Q 4.358271606445313 1.5396750000000003 4.358271606445313 1.5524250000000004 Q 4.358271606445313 1.5659250000000002 4.359021606445313 1.5783000000000003 Q 4.359771606445313 1.5906750000000003 4.360521606445313 1.5989250000000004 L 4.343271606445313 1.5989250000000004 Q 4.338771606445313 1.5546750000000003 4.330521606445313 1.5288000000000004 Q 4.322271606445312 1.5029250000000003 4.3023966064453125 1.4920500000000003 Q 4.282521606445313 1.4811750000000004 4.242771606445313 1.4811750000000004 L 4.180521606445312 1.4811750000000004 Q 4.155021606445313 1.4811750000000004 4.141896606445313 1.4853000000000003 Q 4.128771606445313 1.4894250000000002 4.124271606445313 1.5025500000000003 Q 4.119771606445313 1.5156750000000003 4.119771606445313 1.5434250000000003 L 4.119771606445313 1.9154250000000004 Q 4.119771606445313 1.9424250000000003 4.124271606445313 1.9559250000000004 Q 4.128771606445313 1.9694250000000002 4.141896606445313 1.9735500000000004 Q 4.155021606445313 1.9776750000000003 4.180521606445312 1.9776750000000003 L 4.235271606445313 1.9776750000000003 Q 4.282521606445313 1.9776750000000003 4.306896606445313 1.9649250000000003 Q 4.331271606445313 1.9521750000000002 4.342146606445313 1.9233000000000002 Q 4.353021606445313 1.8944250000000002 4.358271606445313 1.8449250000000004 L 4.375521606445313 1.8449250000000004 Q 4.3732716064453125 1.8651750000000002 4.3732716064453125 1.8989250000000002 Q 4.3732716064453125 1.9131750000000003 4.374396606445313 1.9398000000000002 Q 4.375521606445313 1.9664250000000003 4.378521606445313 1.9949250000000003 Q 4.340271606445313 1.9934250000000002 4.292271606445313 1.9930500000000002 Q 4.244271606445313 1.9926750000000002 4.2067716064453125 1.9926750000000002 Q 4.190271606445313 1.9926750000000002 4.164396606445313 1.9926750000000002 Q 4.1385216064453125 1.9926750000000002 4.108521606445313 1.9930500000000002 Q 4.078521606445313 1.9934250000000002 4.047771606445313 1.9938000000000002 Q 4.017021606445312 1.9941750000000003 3.9892716064453126 1.9949250000000003 L 3.9892716064453126 1.9799250000000004 Q 4.014771606445313 1.9784250000000003 4.027896606445313 1.9739250000000004 Q 4.041021606445312 1.9694250000000002 4.045521606445313 1.9559250000000004 Q 4.050021606445313 1.9424250000000003 4.050021606445313 1.9154250000000004 L 4.050021606445313 1.5434250000000003 Q 4.050021606445313 1.5156750000000003 4.045521606445313 1.5025500000000003 Q 4.041021606445312 1.4894250000000002 4.027896606445313 1.4845500000000003 Q 4.014771606445313 1.4796750000000003 3.9892716064453126 1.4789250000000003 L 3.9892716064453126 1.4639250000000001 Q 4.017021606445312 1.4646750000000002 4.047771606445313 1.4650500000000002 Q 4.078521606445313 1.4654250000000002 4.108521606445313 1.4658000000000002 Q 4.1385216064453125 1.4661750000000002 4.164396606445313 1.4661750000000002 Q 4.190271606445313 1.4661750000000002 4.2067716064453125 1.4661750000000002 Q 4.241271606445313 1.4661750000000002 4.285146606445313 1.4658000000000002 Q 4.329021606445313 1.4654250000000002 4.363521606445313 1.4639250000000001 M 4.234521606445313 1.7204250000000003 Q 4.234521606445313 1.7204250000000003 4.234521606445313 1.7279250000000004 Q 4.234521606445313 1.7354250000000002 4.234521606445313 1.7354250000000002 L 4.097271606445313 1.7354250000000002 Q 4.097271606445313 1.7354250000000002 4.097271606445313 1.7279250000000004 Q 4.097271606445313 1.7204250000000003 4.097271606445313 1.7204250000000003 L 4.234521606445313 1.7204250000000003 M 4.2562716064453125 1.6214250000000003 Q 4.253271606445312 1.6641750000000002 4.2536466064453125 1.6866750000000001 Q 4.2540216064453125 1.7091750000000003 4.2540216064453125 1.7279250000000004 Q 4.2540216064453125 1.7466750000000002 4.2547716064453125 1.7691750000000002 Q 4.2555216064453125 1.7916750000000004 4.258521606445313 1.8344250000000002 L 4.241271606445313 1.8344250000000002 Q 4.238271606445313 1.8104250000000004 4.234146606445313 1.7875500000000002 Q 4.230021606445312 1.7646750000000002 4.216146606445313 1.7500500000000003 Q 4.202271606445313 1.7354250000000002 4.169271606445313 1.7354250000000002 L 4.169271606445313 1.7204250000000003 Q 4.194021606445313 1.7204250000000003 4.2071466064453125 1.7103000000000002 Q 4.220271606445313 1.7001750000000002 4.226271606445313 1.6844250000000003 Q 4.2322716064453125 1.6686750000000004 4.234521606445313 1.6518000000000002 Q 4.236771606445313 1.6349250000000004 4.239021606445313 1.6214250000000003 L 4.2562716064453125 1.6214250000000003 M 4.693528198242188 1.4534250000000002 Q 4.743028198242188 1.4534250000000002 4.774903198242188 1.4680500000000003 Q 4.8067781982421875 1.4826750000000004 4.831528198242188 1.5021750000000003 Q 4.846528198242188 1.5134250000000002 4.854403198242188 1.5048000000000004 Q 4.862278198242188 1.4961750000000003 4.865278198242188 1.4639250000000001 L 4.882528198242188 1.4639250000000001 Q 4.881028198242188 1.4916750000000003 4.880278198242188 1.5314250000000003 Q 4.879528198242188 1.5711750000000002 4.879528198242188 1.6364250000000002 L 4.862278198242188 1.6364250000000002 Q 4.857028198242188 1.6041750000000004 4.8525281982421875 1.5850500000000003 Q 4.848028198242188 1.5659250000000002 4.841653198242188 1.5524250000000004 Q 4.835278198242188 1.5389250000000003 4.824778198242188 1.5254250000000003 Q 4.801528198242188 1.4946750000000004 4.766278198242188 1.4808000000000003 Q 4.731028198242188 1.4669250000000003 4.692028198242188 1.4669250000000003 Q 4.655278198242188 1.4669250000000003 4.625653198242188 1.4853000000000003 Q 4.596028198242188 1.5036750000000003 4.574653198242188 1.5381750000000003 Q 4.553278198242188 1.5726750000000003 4.541653198242188 1.6214250000000003 Q 4.530028198242188 1.6701750000000004 4.530028198242188 1.7309250000000003 Q 4.530028198242188 1.7939250000000002 4.542778198242188 1.8423000000000003 Q 4.555528198242188 1.8906750000000003 4.578403198242188 1.9236750000000002 Q 4.601278198242188 1.9566750000000004 4.632403198242188 1.9735500000000004 Q 4.6635281982421875 1.9904250000000003 4.699528198242188 1.9904250000000003 Q 4.733278198242187 1.9904250000000003 4.770028198242188 1.9769250000000003 Q 4.8067781982421875 1.9634250000000002 4.8277781982421875 1.9334250000000002 Q 4.844278198242188 1.9116750000000002 4.850653198242187 1.8861750000000004 Q 4.857028198242188 1.8606750000000003 4.862278198242188 1.8149250000000003 L 4.879528198242188 1.8149250000000003 Q 4.879528198242188 1.8831750000000003 4.880278198242188 1.9248000000000003 Q 4.881028198242188 1.9664250000000003 4.882528198242188 1.9949250000000003 L 4.865278198242188 1.9949250000000003 Q 4.862278198242188 1.9626750000000004 4.855153198242188 1.9544250000000003 Q 4.848028198242188 1.9461750000000002 4.831528198242188 1.9566750000000004 Q 4.803778198242187 1.9761750000000002 4.772653198242188 1.9908000000000003 Q 4.741528198242188 2.0054250000000002 4.692778198242188 2.0054250000000002 Q 4.621528198242188 2.0054250000000002 4.567903198242188 1.9731750000000003 Q 4.514278198242188 1.9409250000000002 4.484653198242188 1.8801750000000004 Q 4.4550281982421875 1.8194250000000003 4.4550281982421875 1.7339250000000002 Q 4.4550281982421875 1.6499250000000003 4.485778198242188 1.5869250000000004 Q 4.516528198242188 1.5239250000000002 4.5701531982421875 1.4886750000000002 Q 4.623778198242188 1.4534250000000002 4.693528198242188 1.4534250000000002 M 5.124019409179688 1.4556750000000003 Q 5.161519409179688 1.4556750000000003 5.1810194091796875 1.4643000000000002 Q 5.200519409179688 1.4729250000000003 5.215519409179688 1.4834250000000002 Q 5.224519409179688 1.4886750000000002 5.230144409179688 1.4913000000000003 Q 5.235769409179688 1.4939250000000004 5.241019409179688 1.4939250000000004 Q 5.248519409179687 1.4939250000000004 5.2518944091796875 1.4856750000000003 Q 5.255269409179688 1.4774250000000002 5.257519409179688 1.4609250000000003 L 5.2747694091796875 1.4609250000000003 Q 5.2740194091796875 1.4736750000000003 5.272894409179687 1.4913000000000003 Q 5.271769409179688 1.5089250000000003 5.271394409179688 1.5378000000000003 Q 5.271019409179688 1.5666750000000003 5.271019409179688 1.6139250000000003 L 5.253769409179688 1.6139250000000003 Q 5.2515194091796875 1.5779250000000002 5.238019409179688 1.5449250000000003 Q 5.224519409179688 1.5119250000000002 5.198644409179688 1.4909250000000003 Q 5.172769409179688 1.4699250000000004 5.130769409179688 1.4699250000000004 Q 5.091019409179688 1.4699250000000004 5.065144409179688 1.4939250000000004 Q 5.0392694091796875 1.5179250000000002 5.0392694091796875 1.5569250000000003 Q 5.0392694091796875 1.5906750000000003 5.056519409179688 1.6135500000000003 Q 5.073769409179688 1.6364250000000002 5.102644409179688 1.6548000000000003 Q 5.131519409179688 1.6731750000000003 5.165269409179688 1.6941750000000002 Q 5.2042694091796875 1.7181750000000002 5.234644409179688 1.7418000000000002 Q 5.265019409179688 1.7654250000000002 5.282644409179688 1.7939250000000002 Q 5.300269409179688 1.8224250000000002 5.300269409179688 1.8629250000000002 Q 5.300269409179688 1.9109250000000002 5.278519409179688 1.9424250000000003 Q 5.256769409179688 1.9739250000000004 5.220769409179688 1.9896750000000003 Q 5.184769409179688 2.0054250000000002 5.141269409179688 2.0054250000000002 Q 5.101519409179688 2.0054250000000002 5.078269409179688 1.9964250000000003 Q 5.055019409179688 1.9874250000000002 5.038519409179687 1.9776750000000003 Q 5.022019409179688 1.9671750000000003 5.013019409179688 1.9671750000000003 Q 5.005519409179688 1.9671750000000003 5.002144409179688 1.9754250000000002 Q 4.998769409179688 1.9836750000000003 4.996519409179688 2.0001750000000005 L 4.979269409179688 2.0001750000000005 Q 4.980769409179688 1.9844250000000003 4.981144409179688 1.9630500000000002 Q 4.981519409179688 1.9416750000000003 4.981894409179688 1.9071750000000003 Q 4.982269409179688 1.8726750000000003 4.982269409179688 1.8201750000000003 L 4.999519409179688 1.8201750000000003 Q 5.002519409179688 1.8651750000000002 5.0163944091796875 1.9041750000000004 Q 5.030269409179688 1.9431750000000003 5.059144409179688 1.9668000000000003 Q 5.0880194091796875 1.9904250000000003 5.136019409179688 1.9904250000000003 Q 5.160769409179688 1.9904250000000003 5.182894409179688 1.9803000000000002 Q 5.2050194091796875 1.9701750000000002 5.219269409179688 1.9480500000000003 Q 5.233519409179688 1.9259250000000003 5.233519409179688 1.8906750000000003 Q 5.233519409179688 1.8599250000000003 5.218894409179688 1.8370500000000003 Q 5.2042694091796875 1.8141750000000003 5.178019409179688 1.7943000000000002 Q 5.151769409179688 1.7744250000000004 5.116519409179688 1.7534250000000002 Q 5.081269409179688 1.7316750000000003 5.050519409179688 1.7091750000000003 Q 5.019769409179688 1.6866750000000001 5.001394409179688 1.6570500000000004 Q 4.983019409179688 1.6274250000000003 4.983019409179688 1.5854250000000003 Q 4.983019409179688 1.5411750000000004 5.002894409179688 1.5123000000000002 Q 5.022769409179688 1.4834250000000002 5.055019409179688 1.4695500000000004 Q 5.0872694091796875 1.4556750000000003 5.124019409179688 1.4556750000000003" fill="#d7bb90" fill-rule="nonzero"></path></g></g><defs><clipPath id="SvgjsClipPath7906"><path d=" M -4.1086793056878745 -1.0948324914358398 h 3.708679305687874 v 4.18458998287168 h -3.708679305687874 Z"></path></clipPath><clipPath id="a6e108fa2-2f53-4f11-ac3b-d67b9dbd564da7a01821-36de-47f3-8df9-af66549889ab"><path d=" M -4.108679305687874 3.08975749143584 L -0.3999938791985249 3.08975749143584 L -0.3999938791985249 -1.0948324914358398 L -4.108679305687874 -1.0948324914358398 Z"></path></clipPath></defs></svg>